<svg width="512" height="512" viewBox="0 0 512 512" fill="none" xmlns="http://www.w3.org/2000/svg">
  <rect width="512" height="512" rx="128" fill="#4D5EA3"/>
  <path d="M256 120C180.889 120 120 180.889 120 256C120 331.111 180.889 392 256 392C331.111 392 392 331.111 392 256C392 180.889 331.111 120 256 120ZM256 360C198.563 360 152 313.437 152 256C152 198.563 198.563 152 256 152C313.437 152 360 198.563 360 256C360 313.437 313.437 360 256 360Z" fill="white"/>
  <path d="M256 200V312M200 256H312" stroke="white" stroke-width="24" stroke-linecap="round"/>
</svg>