<svg width="512" height="512" viewBox="0 0 512 512" fill="none" xmlns="http://www.w3.org/2000/svg">
  <rect width="512" height="512" rx="128" fill="#4f46e5"/>
  <path d="M160 256C160 202.981 202.981 160 256 160C309.019 160 352 202.981 352 256C352 309.019 309.019 352 256 352C202.981 352 160 309.019 160 256Z" fill="white" fill-opacity="0.2"/>
  <path d="M256 192C220.654 192 192 220.654 192 256C192 291.346 220.654 320 256 320C291.346 320 320 291.346 320 256C320 220.654 291.346 192 256 192Z" fill="white"/>
  <circle cx="256" cy="256" r="32" fill="#4f46e5"/>
</svg>